  0
SECTION
  2
HEADER
  9
$ACADVER
  1
AC1009
  9
$EXTMIN
 10
0.0
 20
0.0
 30
0.0
  9
$EXTMAX
 10
1000.0
 20
1000.0
 30
0.0
  9
$FILLMODE
 70
 0
  9
$SPLFRAME
 70
 1
  0
ENDSEC
  0
SECTION
  2
TABLES
  0
TABLE
  2
LAYER
 70
1
  0
LAYER
  2
0
 70
     0
 62
     7
  6
CONTINUOUS
  0
ENDTAB
  0
ENDSEC
  0
SECTION
  2
ENTITIES
  0
LINE
  8
0
 62
     0
 10
0.0950846
 20
96.5659
 30
0.0
 11
358.285
 21
96.5659
 31
0.0
  0
LINE
  8
0
 62
     0
 10
358.285
 20
96.5659
 30
0.0
 11
358.285
 21
0.316949
 31
0.0
  0
LINE
  8
0
 62
     0
 10
358.285
 20
0.316949
 30
0.0
 11
0.0950846
 21
0.316949
 31
0.0
  0
LINE
  8
0
 62
     0
 10
0.0950846
 20
0.316949
 30
0.0
 11
0.0950846
 21
96.5659
 31
0.0
  0
LINE
  8
0
 62
     0
 10
179.331
 20
17.3413
 30
0.0
 11
179.331
 21
12.6421
 31
0.0
  0
LINE
  8
0
 62
     0
 10
179.331
 20
12.6421
 30
0.0
 11
161.131
 21
12.6421
 31
0.0
  0
LINE
  8
0
 62
     0
 10
161.131
 20
12.6421
 30
0.0
 11
161.131
 21
15.8722
 31
0.0
  0
LINE
  8
0
 62
     0
 10
161.131
 20
15.8722
 30
0.0
 11
159.406
 21
15.8722
 31
0.0
  0
LINE
  8
0
 62
     0
 10
159.406
 20
15.8722
 30
0.0
 11
159.406
 21
16.7928
 31
0.0
  0
LINE
  8
0
 62
     0
 10
159.406
 20
16.7928
 30
0.0
 11
156.107
 21
16.7928
 31
0.0
  0
LINE
  8
0
 62
     0
 10
156.107
 20
16.7928
 30
0.0
 11
156.107
 21
15.8722
 31
0.0
  0
LINE
  8
0
 62
     0
 10
156.107
 20
15.8722
 30
0.0
 11
154.382
 21
15.8722
 31
0.0
  0
LINE
  8
0
 62
     0
 10
154.382
 20
15.8722
 30
0.0
 11
154.382
 21
12.6421
 31
0.0
  0
LINE
  8
0
 62
     0
 10
154.382
 20
12.6421
 30
0.0
 11
153.556
 21
12.6421
 31
0.0
  0
LINE
  8
0
 62
     0
 10
153.556
 20
12.6421
 30
0.0
 11
153.556
 21
9.84194
 31
0.0
  0
LINE
  8
0
 62
     0
 10
153.556
 20
9.84194
 30
0.0
 11
154.382
 21
9.84194
 31
0.0
  0
LINE
  8
0
 62
     0
 10
154.382
 20
9.84194
 30
0.0
 11
154.382
 21
3.57325
 31
0.0
  0
LINE
  8
0
 62
     0
 10
154.382
 20
3.57325
 30
0.0
 11
156.107
 21
3.57325
 31
0.0
  0
LINE
  8
0
 62
     0
 10
156.107
 20
3.57325
 30
0.0
 11
156.107
 21
2.59209
 31
0.0
  0
LINE
  8
0
 62
     0
 10
156.107
 20
2.59209
 30
0.0
 11
159.406
 21
2.59209
 31
0.0
  0
LINE
  8
0
 62
     0
 10
159.406
 20
2.59209
 30
0.0
 11
159.406
 21
3.57325
 31
0.0
  0
LINE
  8
0
 62
     0
 10
159.406
 20
3.57325
 30
0.0
 11
161.131
 21
3.57325
 31
0.0
  0
LINE
  8
0
 62
     0
 10
161.131
 20
3.57325
 30
0.0
 11
161.131
 21
8.04224
 31
0.0
  0
LINE
  8
0
 62
     0
 10
161.131
 20
8.04224
 30
0.0
 11
179.331
 21
8.04224
 31
0.0
  0
LINE
  8
0
 62
     0
 10
179.331
 20
8.04224
 30
0.0
 11
179.331
 21
3.34174
 31
0.0
  0
LINE
  8
0
 62
     0
 10
179.331
 20
3.34174
 30
0.0
 11
193.332
 21
3.34174
 31
0.0
  0
LINE
  8
0
 62
     0
 10
193.332
 20
3.34174
 30
0.0
 11
193.332
 21
8.04224
 31
0.0
  0
LINE
  8
0
 62
     0
 10
193.332
 20
8.04224
 30
0.0
 11
211.532
 21
8.04224
 31
0.0
  0
LINE
  8
0
 62
     0
 10
211.532
 20
8.04224
 30
0.0
 11
211.532
 21
3.57325
 31
0.0
  0
LINE
  8
0
 62
     0
 10
211.532
 20
3.57325
 30
0.0
 11
213.257
 21
3.57325
 31
0.0
  0
LINE
  8
0
 62
     0
 10
213.257
 20
3.57325
 30
0.0
 11
213.257
 21
2.59209
 31
0.0
  0
LINE
  8
0
 62
     0
 10
213.257
 20
2.59209
 30
0.0
 11
216.556
 21
2.59209
 31
0.0
  0
LINE
  8
0
 62
     0
 10
216.556
 20
2.59209
 30
0.0
 11
216.556
 21
3.57325
 31
0.0
  0
LINE
  8
0
 62
     0
 10
216.556
 20
3.57325
 30
0.0
 11
218.281
 21
3.57325
 31
0.0
  0
LINE
  8
0
 62
     0
 10
218.281
 20
3.57325
 30
0.0
 11
218.281
 21
9.84194
 31
0.0
  0
LINE
  8
0
 62
     0
 10
218.281
 20
9.84194
 30
0.0
 11
219.107
 21
9.84194
 31
0.0
  0
LINE
  8
0
 62
     0
 10
219.107
 20
9.84194
 30
0.0
 11
219.107
 21
12.6421
 31
0.0
  0
LINE
  8
0
 62
     0
 10
219.107
 20
12.6421
 30
0.0
 11
218.281
 21
12.6421
 31
0.0
  0
LINE
  8
0
 62
     0
 10
218.281
 20
12.6421
 30
0.0
 11
218.281
 21
15.8722
 31
0.0
  0
LINE
  8
0
 62
     0
 10
218.281
 20
15.8722
 30
0.0
 11
216.556
 21
15.8722
 31
0.0
  0
LINE
  8
0
 62
     0
 10
216.556
 20
15.8722
 30
0.0
 11
216.556
 21
16.7928
 31
0.0
  0
LINE
  8
0
 62
     0
 10
216.556
 20
16.7928
 30
0.0
 11
213.257
 21
16.7928
 31
0.0
  0
LINE
  8
0
 62
     0
 10
213.257
 20
16.7928
 30
0.0
 11
213.257
 21
15.8722
 31
0.0
  0
LINE
  8
0
 62
     0
 10
213.257
 20
15.8722
 30
0.0
 11
211.532
 21
15.8722
 31
0.0
  0
LINE
  8
0
 62
     0
 10
211.532
 20
15.8722
 30
0.0
 11
211.532
 21
12.6421
 31
0.0
  0
LINE
  8
0
 62
     0
 10
211.532
 20
12.6421
 30
0.0
 11
193.332
 21
12.6421
 31
0.0
  0
LINE
  8
0
 62
     0
 10
193.332
 20
12.6421
 30
0.0
 11
193.332
 21
17.3413
 31
0.0
  0
LINE
  8
0
 62
     0
 10
193.332
 20
17.3413
 30
0.0
 11
179.331
 21
17.3413
 31
0.0
  0
LINE
  8
0
 62
     0
 10
103.131
 20
17.3413
 30
0.0
 11
103.131
 21
12.6421
 31
0.0
  0
LINE
  8
0
 62
     0
 10
103.131
 20
12.6421
 30
0.0
 11
84.9313
 21
12.6421
 31
0.0
  0
LINE
  8
0
 62
     0
 10
84.9313
 20
12.6421
 30
0.0
 11
84.9313
 21
15.8722
 31
0.0
  0
LINE
  8
0
 62
     0
 10
84.9313
 20
15.8722
 30
0.0
 11
83.2058
 21
15.8722
 31
0.0
  0
LINE
  8
0
 62
     0
 10
83.2058
 20
15.8722
 30
0.0
 11
83.2058
 21
16.7928
 31
0.0
  0
LINE
  8
0
 62
     0
 10
83.2058
 20
16.7928
 30
0.0
 11
79.907
 21
16.7928
 31
0.0
  0
LINE
  8
0
 62
     0
 10
79.907
 20
16.7928
 30
0.0
 11
79.907
 21
15.8722
 31
0.0
  0
LINE
  8
0
 62
     0
 10
79.907
 20
15.8722
 30
0.0
 11
78.1816
 21
15.8722
 31
0.0
  0
LINE
  8
0
 62
     0
 10
78.1816
 20
15.8722
 30
0.0
 11
78.1816
 21
12.6421
 31
0.0
  0
LINE
  8
0
 62
     0
 10
78.1816
 20
12.6421
 30
0.0
 11
77.3561
 21
12.6421
 31
0.0
  0
LINE
  8
0
 62
     0
 10
77.3561
 20
12.6421
 30
0.0
 11
77.3561
 21
9.84194
 31
0.0
  0
LINE
  8
0
 62
     0
 10
77.3561
 20
9.84194
 30
0.0
 11
78.1816
 21
9.84194
 31
0.0
  0
LINE
  8
0
 62
     0
 10
78.1816
 20
9.84194
 30
0.0
 11
78.1816
 21
3.57325
 31
0.0
  0
LINE
  8
0
 62
     0
 10
78.1816
 20
3.57325
 30
0.0
 11
79.907
 21
3.57325
 31
0.0
  0
LINE
  8
0
 62
     0
 10
79.907
 20
3.57325
 30
0.0
 11
79.907
 21
2.59209
 31
0.0
  0
LINE
  8
0
 62
     0
 10
79.907
 20
2.59209
 30
0.0
 11
83.2058
 21
2.59209
 31
0.0
  0
LINE
  8
0
 62
     0
 10
83.2058
 20
2.59209
 30
0.0
 11
83.2058
 21
3.57325
 31
0.0
  0
LINE
  8
0
 62
     0
 10
83.2058
 20
3.57325
 30
0.0
 11
84.9313
 21
3.57325
 31
0.0
  0
LINE
  8
0
 62
     0
 10
84.9313
 20
3.57325
 30
0.0
 11
84.9313
 21
8.04224
 31
0.0
  0
LINE
  8
0
 62
     0
 10
84.9313
 20
8.04224
 30
0.0
 11
103.131
 21
8.04224
 31
0.0
  0
LINE
  8
0
 62
     0
 10
103.131
 20
8.04224
 30
0.0
 11
103.131
 21
3.34174
 31
0.0
  0
LINE
  8
0
 62
     0
 10
103.131
 20
3.34174
 30
0.0
 11
117.132
 21
3.34174
 31
0.0
  0
LINE
  8
0
 62
     0
 10
117.132
 20
3.34174
 30
0.0
 11
117.132
 21
8.04224
 31
0.0
  0
LINE
  8
0
 62
     0
 10
117.132
 20
8.04224
 30
0.0
 11
135.332
 21
8.04224
 31
0.0
  0
LINE
  8
0
 62
     0
 10
135.332
 20
8.04224
 30
0.0
 11
135.332
 21
3.57325
 31
0.0
  0
LINE
  8
0
 62
     0
 10
135.332
 20
3.57325
 30
0.0
 11
137.057
 21
3.57325
 31
0.0
  0
LINE
  8
0
 62
     0
 10
137.057
 20
3.57325
 30
0.0
 11
137.057
 21
2.59209
 31
0.0
  0
LINE
  8
0
 62
     0
 10
137.057
 20
2.59209
 30
0.0
 11
140.356
 21
2.59209
 31
0.0
  0
LINE
  8
0
 62
     0
 10
140.356
 20
2.59209
 30
0.0
 11
140.356
 21
3.57325
 31
0.0
  0
LINE
  8
0
 62
     0
 10
140.356
 20
3.57325
 30
0.0
 11
142.081
 21
3.57325
 31
0.0
  0
LINE
  8
0
 62
     0
 10
142.081
 20
3.57325
 30
0.0
 11
142.081
 21
9.84194
 31
0.0
  0
LINE
  8
0
 62
     0
 10
142.081
 20
9.84194
 30
0.0
 11
142.907
 21
9.84194
 31
0.0
  0
LINE
  8
0
 62
     0
 10
142.907
 20
9.84194
 30
0.0
 11
142.907
 21
12.6421
 31
0.0
  0
LINE
  8
0
 62
     0
 10
142.907
 20
12.6421
 30
0.0
 11
142.081
 21
12.6421
 31
0.0
  0
LINE
  8
0
 62
     0
 10
142.081
 20
12.6421
 30
0.0
 11
142.081
 21
15.8722
 31
0.0
  0
LINE
  8
0
 62
     0
 10
142.081
 20
15.8722
 30
0.0
 11
140.356
 21
15.8722
 31
0.0
  0
LINE
  8
0
 62
     0
 10
140.356
 20
15.8722
 30
0.0
 11
140.356
 21
16.7928
 31
0.0
  0
LINE
  8
0
 62
     0
 10
140.356
 20
16.7928
 30
0.0
 11
137.057
 21
16.7928
 31
0.0
  0
LINE
  8
0
 62
     0
 10
137.057
 20
16.7928
 30
0.0
 11
137.057
 21
15.8722
 31
0.0
  0
LINE
  8
0
 62
     0
 10
137.057
 20
15.8722
 30
0.0
 11
135.332
 21
15.8722
 31
0.0
  0
LINE
  8
0
 62
     0
 10
135.332
 20
15.8722
 30
0.0
 11
135.332
 21
12.6421
 31
0.0
  0
LINE
  8
0
 62
     0
 10
135.332
 20
12.6421
 30
0.0
 11
117.132
 21
12.6421
 31
0.0
  0
LINE
  8
0
 62
     0
 10
117.132
 20
12.6421
 30
0.0
 11
117.132
 21
17.3413
 31
0.0
  0
LINE
  8
0
 62
     0
 10
117.132
 20
17.3413
 30
0.0
 11
103.131
 21
17.3413
 31
0.0
  0
LINE
  8
0
 62
     0
 10
341.256
 20
17.3413
 30
0.0
 11
355.258
 21
17.3413
 31
0.0
  0
LINE
  8
0
 62
     0
 10
355.258
 20
17.3413
 30
0.0
 11
355.258
 21
3.34174
 31
0.0
  0
LINE
  8
0
 62
     0
 10
355.258
 20
3.34174
 30
0.0
 11
341.256
 21
3.34174
 31
0.0
  0
LINE
  8
0
 62
     0
 10
341.256
 20
3.34174
 30
0.0
 11
341.256
 21
17.3413
 31
0.0
  0
LINE
  8
0
 62
     0
 10
317.445
 20
17.3413
 30
0.0
 11
331.444
 21
17.3413
 31
0.0
  0
LINE
  8
0
 62
     0
 10
331.444
 20
17.3413
 30
0.0
 11
331.444
 21
3.34174
 31
0.0
  0
LINE
  8
0
 62
     0
 10
331.444
 20
3.34174
 30
0.0
 11
317.445
 21
3.34174
 31
0.0
  0
LINE
  8
0
 62
     0
 10
317.445
 20
3.34174
 30
0.0
 11
317.445
 21
17.3413
 31
0.0
  0
LINE
  8
0
 62
     0
 10
298.395
 20
17.3413
 30
0.0
 11
312.394
 21
17.3413
 31
0.0
  0
LINE
  8
0
 62
     0
 10
312.394
 20
17.3413
 30
0.0
 11
312.394
 21
3.34174
 31
0.0
  0
LINE
  8
0
 62
     0
 10
312.394
 20
3.34174
 30
0.0
 11
298.395
 21
3.34174
 31
0.0
  0
LINE
  8
0
 62
     0
 10
298.395
 20
3.34174
 30
0.0
 11
298.395
 21
17.3413
 31
0.0
  0
LINE
  8
0
 62
     0
 10
279.345
 20
17.3413
 30
0.0
 11
293.344
 21
17.3413
 31
0.0
  0
LINE
  8
0
 62
     0
 10
293.344
 20
17.3413
 30
0.0
 11
293.344
 21
3.34174
 31
0.0
  0
LINE
  8
0
 62
     0
 10
293.344
 20
3.34174
 30
0.0
 11
279.345
 21
3.34174
 31
0.0
  0
LINE
  8
0
 62
     0
 10
279.345
 20
3.34174
 30
0.0
 11
279.345
 21
17.3413
 31
0.0
  0
LINE
  8
0
 62
     0
 10
253.15
 20
17.3413
 30
0.0
 11
267.15
 21
17.3413
 31
0.0
  0
LINE
  8
0
 62
     0
 10
267.15
 20
17.3413
 30
0.0
 11
267.15
 21
3.34174
 31
0.0
  0
LINE
  8
0
 62
     0
 10
267.15
 20
3.34174
 30
0.0
 11
253.15
 21
3.34174
 31
0.0
  0
LINE
  8
0
 62
     0
 10
253.15
 20
3.34174
 30
0.0
 11
253.15
 21
17.3413
 31
0.0
  0
LINE
  8
0
 62
     0
 10
229.337
 20
17.3413
 30
0.0
 11
243.338
 21
17.3413
 31
0.0
  0
LINE
  8
0
 62
     0
 10
243.338
 20
17.3413
 30
0.0
 11
243.338
 21
3.34174
 31
0.0
  0
LINE
  8
0
 62
     0
 10
243.338
 20
3.34174
 30
0.0
 11
229.337
 21
3.34174
 31
0.0
  0
LINE
  8
0
 62
     0
 10
229.337
 20
3.34174
 30
0.0
 11
229.337
 21
17.3413
 31
0.0
  0
LINE
  8
0
 62
     0
 10
53.1262
 20
17.3413
 30
0.0
 11
67.1255
 21
17.3413
 31
0.0
  0
LINE
  8
0
 62
     0
 10
67.1255
 20
17.3413
 30
0.0
 11
67.1255
 21
3.34174
 31
0.0
  0
LINE
  8
0
 62
     0
 10
67.1255
 20
3.34174
 30
0.0
 11
53.1262
 21
3.34174
 31
0.0
  0
LINE
  8
0
 62
     0
 10
53.1262
 20
3.34174
 30
0.0
 11
53.1262
 21
17.3413
 31
0.0
  0
LINE
  8
0
 62
     0
 10
29.3122
 20
17.3413
 30
0.0
 11
43.313
 21
17.3413
 31
0.0
  0
LINE
  8
0
 62
     0
 10
43.313
 20
17.3413
 30
0.0
 11
43.313
 21
3.34174
 31
0.0
  0
LINE
  8
0
 62
     0
 10
43.313
 20
3.34174
 30
0.0
 11
29.3122
 21
3.34174
 31
0.0
  0
LINE
  8
0
 62
     0
 10
29.3122
 20
3.34174
 30
0.0
 11
29.3122
 21
17.3413
 31
0.0
  0
LINE
  8
0
 62
     0
 10
5.50115
 20
17.3413
 30
0.0
 11
19.5006
 21
17.3413
 31
0.0
  0
LINE
  8
0
 62
     0
 10
19.5006
 20
17.3413
 30
0.0
 11
19.5006
 21
3.34174
 31
0.0
  0
LINE
  8
0
 62
     0
 10
19.5006
 20
3.34174
 30
0.0
 11
5.50115
 21
3.34174
 31
0.0
  0
LINE
  8
0
 62
     0
 10
5.50115
 20
3.34174
 30
0.0
 11
5.50115
 21
17.3413
 31
0.0
  0
LINE
  8
0
 62
     0
 10
253.15
 20
36.3911
 30
0.0
 11
253.15
 21
31.6921
 31
0.0
  0
LINE
  8
0
 62
     0
 10
253.15
 20
31.6921
 30
0.0
 11
251.626
 21
31.6921
 31
0.0
  0
LINE
  8
0
 62
     0
 10
251.626
 20
31.6921
 30
0.0
 11
251.626
 21
34.9222
 31
0.0
  0
LINE
  8
0
 62
     0
 10
251.626
 20
34.9222
 30
0.0
 11
249.9
 21
34.9222
 31
0.0
  0
LINE
  8
0
 62
     0
 10
249.9
 20
34.9222
 30
0.0
 11
249.9
 21
35.8415
 31
0.0
  0
LINE
  8
0
 62
     0
 10
249.9
 20
35.8415
 30
0.0
 11
246.6
 21
35.8415
 31
0.0
  0
LINE
  8
0
 62
     0
 10
246.6
 20
35.8415
 30
0.0
 11
246.6
 21
34.9222
 31
0.0
  0
LINE
  8
0
 62
     0
 10
246.6
 20
34.9222
 30
0.0
 11
244.876
 21
34.9222
 31
0.0
  0
LINE
  8
0
 62
     0
 10
244.876
 20
34.9222
 30
0.0
 11
244.876
 21
31.6921
 31
0.0
  0
LINE
  8
0
 62
     0
 10
244.876
 20
31.6921
 30
0.0
 11
244.051
 21
31.6921
 31
0.0
  0
LINE
  8
0
 62
     0
 10
244.051
 20
31.6921
 30
0.0
 11
244.051
 21
28.8919
 31
0.0
  0
LINE
  8
0
 62
     0
 10
244.051
 20
28.8919
 30
0.0
 11
244.876
 21
28.8919
 31
0.0
  0
LINE
  8
0
 62
     0
 10
244.876
 20
28.8919
 30
0.0
 11
244.876
 21
22.6219
 31
0.0
  0
LINE
  8
0
 62
     0
 10
244.876
 20
22.6219
 30
0.0
 11
246.6
 21
22.6219
 31
0.0
  0
LINE
  8
0
 62
     0
 10
246.6
 20
22.6219
 30
0.0
 11
246.6
 21
21.6421
 31
0.0
  0
LINE
  8
0
 62
     0
 10
246.6
 20
21.6421
 30
0.0
 11
249.9
 21
21.6421
 31
0.0
  0
LINE
  8
0
 62
     0
 10
249.9
 20
21.6421
 30
0.0
 11
249.9
 21
22.6219
 31
0.0
  0
LINE
  8
0
 62
     0
 10
249.9
 20
22.6219
 30
0.0
 11
251.626
 21
22.6219
 31
0.0
  0
LINE
  8
0
 62
     0
 10
251.626
 20
22.6219
 30
0.0
 11
251.626
 21
27.0922
 31
0.0
  0
LINE
  8
0
 62
     0
 10
251.626
 20
27.0922
 30
0.0
 11
253.15
 21
27.0922
 31
0.0
  0
LINE
  8
0
 62
     0
 10
253.15
 20
27.0922
 30
0.0
 11
253.15
 21
22.3918
 31
0.0
  0
LINE
  8
0
 62
     0
 10
253.15
 20
22.3918
 30
0.0
 11
267.15
 21
22.3918
 31
0.0
  0
LINE
  8
0
 62
     0
 10
267.15
 20
22.3918
 30
0.0
 11
267.15
 21
27.0922
 31
0.0
  0
LINE
  8
0
 62
     0
 10
267.15
 20
27.0922
 30
0.0
 11
268.676
 21
27.0922
 31
0.0
  0
LINE
  8
0
 62
     0
 10
268.676
 20
27.0922
 30
0.0
 11
268.676
 21
22.6219
 31
0.0
  0
LINE
  8
0
 62
     0
 10
268.676
 20
22.6219
 30
0.0
 11
270.4
 21
22.6219
 31
0.0
  0
LINE
  8
0
 62
     0
 10
270.4
 20
22.6219
 30
0.0
 11
270.4
 21
21.6421
 31
0.0
  0
LINE
  8
0
 62
     0
 10
270.4
 20
21.6421
 30
0.0
 11
273.701
 21
21.6421
 31
0.0
  0
LINE
  8
0
 62
     0
 10
273.701
 20
21.6421
 30
0.0
 11
273.701
 21
22.6219
 31
0.0
  0
LINE
  8
0
 62
     0
 10
273.701
 20
22.6219
 30
0.0
 11
275.426
 21
22.6219
 31
0.0
  0
LINE
  8
0
 62
     0
 10
275.426
 20
22.6219
 30
0.0
 11
275.426
 21
28.8919
 31
0.0
  0
LINE
  8
0
 62
     0
 10
275.426
 20
28.8919
 30
0.0
 11
276.25
 21
28.8919
 31
0.0
  0
LINE
  8
0
 62
     0
 10
276.25
 20
28.8919
 30
0.0
 11
276.25
 21
31.6921
 31
0.0
  0
LINE
  8
0
 62
     0
 10
276.25
 20
31.6921
 30
0.0
 11
275.426
 21
31.6921
 31
0.0
  0
LINE
  8
0
 62
     0
 10
275.426
 20
31.6921
 30
0.0
 11
275.426
 21
34.9222
 31
0.0
  0
LINE
  8
0
 62
     0
 10
275.426
 20
34.9222
 30
0.0
 11
273.701
 21
34.9222
 31
0.0
  0
LINE
  8
0
 62
     0
 10
273.701
 20
34.9222
 30
0.0
 11
273.701
 21
35.8415
 31
0.0
  0
LINE
  8
0
 62
     0
 10
273.701
 20
35.8415
 30
0.0
 11
270.4
 21
35.8415
 31
0.0
  0
LINE
  8
0
 62
     0
 10
270.4
 20
35.8415
 30
0.0
 11
270.4
 21
34.9222
 31
0.0
  0
LINE
  8
0
 62
     0
 10
270.4
 20
34.9222
 30
0.0
 11
268.676
 21
34.9222
 31
0.0
  0
LINE
  8
0
 62
     0
 10
268.676
 20
34.9222
 30
0.0
 11
268.676
 21
31.6921
 31
0.0
  0
LINE
  8
0
 62
     0
 10
268.676
 20
31.6921
 30
0.0
 11
267.15
 21
31.6921
 31
0.0
  0
LINE
  8
0
 62
     0
 10
267.15
 20
31.6921
 30
0.0
 11
267.15
 21
36.3911
 31
0.0
  0
LINE
  8
0
 62
     0
 10
267.15
 20
36.3911
 30
0.0
 11
253.15
 21
36.3911
 31
0.0
  0
LINE
  8
0
 62
     0
 10
15.0261
 20
36.3911
 30
0.0
 11
15.0261
 21
31.6921
 31
0.0
  0
LINE
  8
0
 62
     0
 10
15.0261
 20
31.6921
 30
0.0
 11
13.5006
 21
31.6921
 31
0.0
  0
LINE
  8
0
 62
     0
 10
13.5006
 20
31.6921
 30
0.0
 11
13.5006
 21
34.9222
 31
0.0
  0
LINE
  8
0
 62
     0
 10
13.5006
 20
34.9222
 30
0.0
 11
11.7753
 21
34.9222
 31
0.0
  0
LINE
  8
0
 62
     0
 10
11.7753
 20
34.9222
 30
0.0
 11
11.7753
 21
35.8415
 31
0.0
  0
LINE
  8
0
 62
     0
 10
11.7753
 20
35.8415
 30
0.0
 11
8.47492
 21
35.8415
 31
0.0
  0
LINE
  8
0
 62
     0
 10
8.47492
 20
35.8415
 30
0.0
 11
8.47492
 21
34.9222
 31
0.0
  0
LINE
  8
0
 62
     0
 10
8.47492
 20
34.9222
 30
0.0
 11
6.751
 21
34.9222
 31
0.0
  0
LINE
  8
0
 62
     0
 10
6.751
 20
34.9222
 30
0.0
 11
6.751
 21
31.6921
 31
0.0
  0
LINE
  8
0
 62
     0
 10
6.751
 20
31.6921
 30
0.0
 11
5.92557
 21
31.6921
 31
0.0
  0
LINE
  8
0
 62
     0
 10
5.92557
 20
31.6921
 30
0.0
 11
5.92557
 21
28.8919
 31
0.0
  0
LINE
  8
0
 62
     0
 10
5.92557
 20
28.8919
 30
0.0
 11
6.751
 21
28.8919
 31
0.0
  0
LINE
  8
0
 62
     0
 10
6.751
 20
28.8919
 30
0.0
 11
6.751
 21
22.6219
 31
0.0
  0
LINE
  8
0
 62
     0
 10
6.751
 20
22.6219
 30
0.0
 11
8.47492
 21
22.6219
 31
0.0
  0
LINE
  8
0
 62
     0
 10
8.47492
 20
22.6219
 30
0.0
 11
8.47492
 21
21.6421
 31
0.0
  0
LINE
  8
0
 62
     0
 10
8.47492
 20
21.6421
 30
0.0
 11
11.7753
 21
21.6421
 31
0.0
  0
LINE
  8
0
 62
     0
 10
11.7753
 20
21.6421
 30
0.0
 11
11.7753
 21
22.6219
 31
0.0
  0
LINE
  8
0
 62
     0
 10
11.7753
 20
22.6219
 30
0.0
 11
13.5006
 21
22.6219
 31
0.0
  0
LINE
  8
0
 62
     0
 10
13.5006
 20
22.6219
 30
0.0
 11
13.5006
 21
27.0922
 31
0.0
  0
LINE
  8
0
 62
     0
 10
13.5006
 20
27.0922
 30
0.0
 11
15.0261
 21
27.0922
 31
0.0
  0
LINE
  8
0
 62
     0
 10
15.0261
 20
27.0922
 30
0.0
 11
15.0261
 21
22.3918
 31
0.0
  0
LINE
  8
0
 62
     0
 10
15.0261
 20
22.3918
 30
0.0
 11
29.0256
 21
22.3918
 31
0.0
  0
LINE
  8
0
 62
     0
 10
29.0256
 20
22.3918
 30
0.0
 11
29.0256
 21
27.0922
 31
0.0
  0
LINE
  8
0
 62
     0
 10
29.0256
 20
27.0922
 30
0.0
 11
30.5511
 21
27.0922
 31
0.0
  0
LINE
  8
0
 62
     0
 10
30.5511
 20
27.0922
 30
0.0
 11
30.5511
 21
22.6219
 31
0.0
  0
LINE
  8
0
 62
     0
 10
30.5511
 20
22.6219
 30
0.0
 11
32.275
 21
22.6219
 31
0.0
  0
LINE
  8
0
 62
     0
 10
32.275
 20
22.6219
 30
0.0
 11
32.275
 21
21.6421
 31
0.0
  0
LINE
  8
0
 62
     0
 10
32.275
 20
21.6421
 30
0.0
 11
35.5755
 21
21.6421
 31
0.0
  0
LINE
  8
0
 62
     0
 10
35.5755
 20
21.6421
 30
0.0
 11
35.5755
 21
22.6219
 31
0.0
  0
LINE
  8
0
 62
     0
 10
35.5755
 20
22.6219
 30
0.0
 11
37.3006
 21
22.6219
 31
0.0
  0
LINE
  8
0
 62
     0
 10
37.3006
 20
22.6219
 30
0.0
 11
37.3006
 21
28.8919
 31
0.0
  0
LINE
  8
0
 62
     0
 10
37.3006
 20
28.8919
 30
0.0
 11
38.1247
 21
28.8919
 31
0.0
  0
LINE
  8
0
 62
     0
 10
38.1247
 20
28.8919
 30
0.0
 11
38.1247
 21
31.6921
 31
0.0
  0
LINE
  8
0
 62
     0
 10
38.1247
 20
31.6921
 30
0.0
 11
37.3006
 21
31.6921
 31
0.0
  0
LINE
  8
0
 62
     0
 10
37.3006
 20
31.6921
 30
0.0
 11
37.3006
 21
34.9222
 31
0.0
  0
LINE
  8
0
 62
     0
 10
37.3006
 20
34.9222
 30
0.0
 11
35.5755
 21
34.9222
 31
0.0
  0
LINE
  8
0
 62
     0
 10
35.5755
 20
34.9222
 30
0.0
 11
35.5755
 21
35.8415
 31
0.0
  0
LINE
  8
0
 62
     0
 10
35.5755
 20
35.8415
 30
0.0
 11
32.275
 21
35.8415
 31
0.0
  0
LINE
  8
0
 62
     0
 10
32.275
 20
35.8415
 30
0.0
 11
32.275
 21
34.9222
 31
0.0
  0
LINE
  8
0
 62
     0
 10
32.275
 20
34.9222
 30
0.0
 11
30.5511
 21
34.9222
 31
0.0
  0
LINE
  8
0
 62
     0
 10
30.5511
 20
34.9222
 30
0.0
 11
30.5511
 21
31.6921
 31
0.0
  0
LINE
  8
0
 62
     0
 10
30.5511
 20
31.6921
 30
0.0
 11
29.0256
 21
31.6921
 31
0.0
  0
LINE
  8
0
 62
     0
 10
29.0256
 20
31.6921
 30
0.0
 11
29.0256
 21
36.3911
 31
0.0
  0
LINE
  8
0
 62
     0
 10
29.0256
 20
36.3911
 30
0.0
 11
15.0261
 21
36.3911
 31
0.0
  0
LINE
  8
0
 62
     0
 10
341.256
 20
36.3911
 30
0.0
 11
355.258
 21
36.3911
 31
0.0
  0
LINE
  8
0
 62
     0
 10
355.258
 20
36.3911
 30
0.0
 11
355.258
 21
22.3918
 31
0.0
  0
LINE
  8
0
 62
     0
 10
355.258
 20
22.3918
 30
0.0
 11
341.256
 21
22.3918
 31
0.0
  0
LINE
  8
0
 62
     0
 10
341.256
 20
22.3918
 30
0.0
 11
341.256
 21
36.3911
 31
0.0
  0
LINE
  8
0
 62
     0
 10
322.206
 20
36.3911
 30
0.0
 11
336.207
 21
36.3911
 31
0.0
  0
LINE
  8
0
 62
     0
 10
336.207
 20
36.3911
 30
0.0
 11
336.207
 21
22.3918
 31
0.0
  0
LINE
  8
0
 62
     0
 10
336.207
 20
22.3918
 30
0.0
 11
322.206
 21
22.3918
 31
0.0
  0
LINE
  8
0
 62
     0
 10
322.206
 20
22.3918
 30
0.0
 11
322.206
 21
36.3911
 31
0.0
  0
LINE
  8
0
 62
     0
 10
298.395
 20
36.3911
 30
0.0
 11
312.394
 21
36.3911
 31
0.0
  0
LINE
  8
0
 62
     0
 10
312.394
 20
36.3911
 30
0.0
 11
312.394
 21
22.3918
 31
0.0
  0
LINE
  8
0
 62
     0
 10
312.394
 20
22.3918
 30
0.0
 11
298.395
 21
22.3918
 31
0.0
  0
LINE
  8
0
 62
     0
 10
298.395
 20
22.3918
 30
0.0
 11
298.395
 21
36.3911
 31
0.0
  0
LINE
  8
0
 62
     0
 10
217.431
 20
36.3911
 30
0.0
 11
231.432
 21
36.3911
 31
0.0
  0
LINE
  8
0
 62
     0
 10
231.432
 20
36.3911
 30
0.0
 11
231.432
 21
22.3918
 31
0.0
  0
LINE
  8
0
 62
     0
 10
231.432
 20
22.3918
 30
0.0
 11
217.431
 21
22.3918
 31
0.0
  0
LINE
  8
0
 62
     0
 10
217.431
 20
22.3918
 30
0.0
 11
217.431
 21
36.3911
 31
0.0
  0
LINE
  8
0
 62
     0
 10
198.381
 20
36.3911
 30
0.0
 11
212.382
 21
36.3911
 31
0.0
  0
LINE
  8
0
 62
     0
 10
212.382
 20
36.3911
 30
0.0
 11
212.382
 21
22.3918
 31
0.0
  0
LINE
  8
0
 62
     0
 10
212.382
 20
22.3918
 30
0.0
 11
198.381
 21
22.3918
 31
0.0
  0
LINE
  8
0
 62
     0
 10
198.381
 20
22.3918
 30
0.0
 11
198.381
 21
36.3911
 31
0.0
  0
LINE
  8
0
 62
     0
 10
179.331
 20
36.3911
 30
0.0
 11
193.332
 21
36.3911
 31
0.0
  0
LINE
  8
0
 62
     0
 10
193.332
 20
36.3911
 30
0.0
 11
193.332
 21
22.3918
 31
0.0
  0
LINE
  8
0
 62
     0
 10
193.332
 20
22.3918
 30
0.0
 11
179.331
 21
22.3918
 31
0.0
  0
LINE
  8
0
 62
     0
 10
179.331
 20
22.3918
 30
0.0
 11
179.331
 21
36.3911
 31
0.0
  0
LINE
  8
0
 62
     0
 10
160.281
 20
36.3911
 30
0.0
 11
174.282
 21
36.3911
 31
0.0
  0
LINE
  8
0
 62
     0
 10
174.282
 20
36.3911
 30
0.0
 11
174.282
 21
22.3918
 31
0.0
  0
LINE
  8
0
 62
     0
 10
174.282
 20
22.3918
 30
0.0
 11
160.281
 21
22.3918
 31
0.0
  0
LINE
  8
0
 62
     0
 10
160.281
 20
22.3918
 30
0.0
 11
160.281
 21
36.3911
 31
0.0
  0
LINE
  8
0
 62
     0
 10
141.231
 20
36.3911
 30
0.0
 11
155.232
 21
36.3911
 31
0.0
  0
LINE
  8
0
 62
     0
 10
155.232
 20
36.3911
 30
0.0
 11
155.232
 21
22.3918
 31
0.0
  0
LINE
  8
0
 62
     0
 10
155.232
 20
22.3918
 30
0.0
 11
141.231
 21
22.3918
 31
0.0
  0
LINE
  8
0
 62
     0
 10
141.231
 20
22.3918
 30
0.0
 11
141.231
 21
36.3911
 31
0.0
  0
LINE
  8
0
 62
     0
 10
122.181
 20
36.3911
 30
0.0
 11
136.182
 21
36.3911
 31
0.0
  0
LINE
  8
0
 62
     0
 10
136.182
 20
36.3911
 30
0.0
 11
136.182
 21
22.3918
 31
0.0
  0
LINE
  8
0
 62
     0
 10
136.182
 20
22.3918
 30
0.0
 11
122.181
 21
22.3918
 31
0.0
  0
LINE
  8
0
 62
     0
 10
122.181
 20
22.3918
 30
0.0
 11
122.181
 21
36.3911
 31
0.0
  0
LINE
  8
0
 62
     0
 10
103.131
 20
36.3911
 30
0.0
 11
117.132
 21
36.3911
 31
0.0
  0
LINE
  8
0
 62
     0
 10
117.132
 20
36.3911
 30
0.0
 11
117.132
 21
22.3918
 31
0.0
  0
LINE
  8
0
 62
     0
 10
117.132
 20
22.3918
 30
0.0
 11
103.131
 21
22.3918
 31
0.0
  0
LINE
  8
0
 62
     0
 10
103.131
 20
22.3918
 30
0.0
 11
103.131
 21
36.3911
 31
0.0
  0
LINE
  8
0
 62
     0
 10
84.0811
 20
36.3911
 30
0.0
 11
98.0818
 21
36.3911
 31
0.0
  0
LINE
  8
0
 62
     0
 10
98.0818
 20
36.3911
 30
0.0
 11
98.0818
 21
22.3918
 31
0.0
  0
LINE
  8
0
 62
     0
 10
98.0818
 20
22.3918
 30
0.0
 11
84.0811
 21
22.3918
 31
0.0
  0
LINE
  8
0
 62
     0
 10
84.0811
 20
22.3918
 30
0.0
 11
84.0811
 21
36.3911
 31
0.0
  0
LINE
  8
0
 62
     0
 10
65.0311
 20
36.3911
 30
0.0
 11
79.0317
 21
36.3911
 31
0.0
  0
LINE
  8
0
 62
     0
 10
79.0317
 20
36.3911
 30
0.0
 11
79.0317
 21
22.3918
 31
0.0
  0
LINE
  8
0
 62
     0
 10
79.0317
 20
22.3918
 30
0.0
 11
65.0311
 21
22.3918
 31
0.0
  0
LINE
  8
0
 62
     0
 10
65.0311
 20
22.3918
 30
0.0
 11
65.0311
 21
36.3911
 31
0.0
  0
LINE
  8
0
 62
     0
 10
45.9811
 20
36.3911
 30
0.0
 11
59.9817
 21
36.3911
 31
0.0
  0
LINE
  8
0
 62
     0
 10
59.9817
 20
36.3911
 30
0.0
 11
59.9817
 21
22.3918
 31
0.0
  0
LINE
  8
0
 62
     0
 10
59.9817
 20
22.3918
 30
0.0
 11
45.9811
 21
22.3918
 31
0.0
  0
LINE
  8
0
 62
     0
 10
45.9811
 20
22.3918
 30
0.0
 11
45.9811
 21
36.3911
 31
0.0
  0
LINE
  8
0
 62
     0
 10
257.912
 20
55.4411
 30
0.0
 11
257.912
 21
50.7421
 31
0.0
  0
LINE
  8
0
 62
     0
 10
257.912
 20
50.7421
 30
0.0
 11
256.388
 21
50.7421
 31
0.0
  0
LINE
  8
0
 62
     0
 10
256.388
 20
50.7421
 30
0.0
 11
256.388
 21
53.9722
 31
0.0
  0
LINE
  8
0
 62
     0
 10
256.388
 20
53.9722
 30
0.0
 11
254.661
 21
53.9722
 31
0.0
  0
LINE
  8
0
 62
     0
 10
254.661
 20
53.9722
 30
0.0
 11
254.661
 21
54.8915
 31
0.0
  0
LINE
  8
0
 62
     0
 10
254.661
 20
54.8915
 30
0.0
 11
251.361
 21
54.8915
 31
0.0
  0
LINE
  8
0
 62
     0
 10
251.361
 20
54.8915
 30
0.0
 11
251.361
 21
53.9722
 31
0.0
  0
LINE
  8
0
 62
     0
 10
251.361
 20
53.9722
 30
0.0
 11
249.637
 21
53.9722
 31
0.0
  0
LINE
  8
0
 62
     0
 10
249.637
 20
53.9722
 30
0.0
 11
249.637
 21
50.7421
 31
0.0
  0
LINE
  8
0
 62
     0
 10
249.637
 20
50.7421
 30
0.0
 11
248.813
 21
50.7421
 31
0.0
  0
LINE
  8
0
 62
     0
 10
248.813
 20
50.7421
 30
0.0
 11
248.813
 21
47.9418
 31
0.0
  0
LINE
  8
0
 62
     0
 10
248.813
 20
47.9418
 30
0.0
 11
249.637
 21
47.9418
 31
0.0
  0
LINE
  8
0
 62
     0
 10
249.637
 20
47.9418
 30
0.0
 11
249.637
 21
41.6733
 31
0.0
  0
LINE
  8
0
 62
     0
 10
249.637
 20
41.6733
 30
0.0
 11
251.361
 21
41.6733
 31
0.0
  0
LINE
  8
0
 62
     0
 10
251.361
 20
41.6733
 30
0.0
 11
251.361
 21
40.6922
 31
0.0
  0
LINE
  8
0
 62
     0
 10
251.361
 20
40.6922
 30
0.0
 11
254.661
 21
40.6922
 31
0.0
  0
LINE
  8
0
 62
     0
 10
254.661
 20
40.6922
 30
0.0
 11
254.661
 21
41.6733
 31
0.0
  0
LINE
  8
0
 62
     0
 10
254.661
 20
41.6733
 30
0.0
 11
256.388
 21
41.6733
 31
0.0
  0
LINE
  8
0
 62
     0
 10
256.388
 20
41.6733
 30
0.0
 11
256.388
 21
46.1423
 31
0.0
  0
LINE
  8
0
 62
     0
 10
256.388
 20
46.1423
 30
0.0
 11
257.912
 21
46.1423
 31
0.0
  0
LINE
  8
0
 62
     0
 10
257.912
 20
46.1423
 30
0.0
 11
257.912
 21
41.4419
 31
0.0
  0
LINE
  8
0
 62
     0
 10
257.912
 20
41.4419
 30
0.0
 11
271.913
 21
41.4419
 31
0.0
  0
LINE
  8
0
 62
     0
 10
271.913
 20
41.4419
 30
0.0
 11
271.913
 21
46.1423
 31
0.0
  0
LINE
  8
0
 62
     0
 10
271.913
 20
46.1423
 30
0.0
 11
273.437
 21
46.1423
 31
0.0
  0
LINE
  8
0
 62
     0
 10
273.437
 20
46.1423
 30
0.0
 11
273.437
 21
41.6733
 31
0.0
  0
LINE
  8
0
 62
     0
 10
273.437
 20
41.6733
 30
0.0
 11
275.162
 21
41.6733
 31
0.0
  0
LINE
  8
0
 62
     0
 10
275.162
 20
41.6733
 30
0.0
 11
275.162
 21
40.6922
 31
0.0
  0
LINE
  8
0
 62
     0
 10
275.162
 20
40.6922
 30
0.0
 11
278.463
 21
40.6922
 31
0.0
  0
LINE
  8
0
 62
     0
 10
278.463
 20
40.6922
 30
0.0
 11
278.463
 21
41.6733
 31
0.0
  0
LINE
  8
0
 62
     0
 10
278.463
 20
41.6733
 30
0.0
 11
280.187
 21
41.6733
 31
0.0
  0
LINE
  8
0
 62
     0
 10
280.187
 20
41.6733
 30
0.0
 11
280.187
 21
47.9418
 31
0.0
  0
LINE
  8
0
 62
     0
 10
280.187
 20
47.9418
 30
0.0
 11
281.012
 21
47.9418
 31
0.0
  0
LINE
  8
0
 62
     0
 10
281.012
 20
47.9418
 30
0.0
 11
281.012
 21
50.7421
 31
0.0
  0
LINE
  8
0
 62
     0
 10
281.012
 20
50.7421
 30
0.0
 11
280.187
 21
50.7421
 31
0.0
  0
LINE
  8
0
 62
     0
 10
280.187
 20
50.7421
 30
0.0
 11
280.187
 21
53.9722
 31
0.0
  0
LINE
  8
0
 62
     0
 10
280.187
 20
53.9722
 30
0.0
 11
278.463
 21
53.9722
 31
0.0
  0
LINE
  8
0
 62
     0
 10
278.463
 20
53.9722
 30
0.0
 11
278.463
 21
54.8915
 31
0.0
  0
LINE
  8
0
 62
     0
 10
278.463
 20
54.8915
 30
0.0
 11
275.162
 21
54.8915
 31
0.0
  0
LINE
  8
0
 62
     0
 10
275.162
 20
54.8915
 30
0.0
 11
275.162
 21
53.9722
 31
0.0
  0
LINE
  8
0
 62
     0
 10
275.162
 20
53.9722
 30
0.0
 11
273.437
 21
53.9722
 31
0.0
  0
LINE
  8
0
 62
     0
 10
273.437
 20
53.9722
 30
0.0
 11
273.437
 21
50.7421
 31
0.0
  0
LINE
  8
0
 62
     0
 10
273.437
 20
50.7421
 30
0.0
 11
271.913
 21
50.7421
 31
0.0
  0
LINE
  8
0
 62
     0
 10
271.913
 20
50.7421
 30
0.0
 11
271.913
 21
55.4411
 31
0.0
  0
LINE
  8
0
 62
     0
 10
271.913
 20
55.4411
 30
0.0
 11
257.912
 21
55.4411
 31
0.0
  0
LINE
  8
0
 62
     0
 10
341.256
 20
55.4411
 30
0.0
 11
355.258
 21
55.4411
 31
0.0
  0
LINE
  8
0
 62
     0
 10
355.258
 20
55.4411
 30
0.0
 11
355.258
 21
41.4419
 31
0.0
  0
LINE
  8
0
 62
     0
 10
355.258
 20
41.4419
 30
0.0
 11
341.256
 21
41.4419
 31
0.0
  0
LINE
  8
0
 62
     0
 10
341.256
 20
41.4419
 30
0.0
 11
341.256
 21
55.4411
 31
0.0
  0
LINE
  8
0
 62
     0
 10
322.206
 20
55.4411
 30
0.0
 11
336.207
 21
55.4411
 31
0.0
  0
LINE
  8
0
 62
     0
 10
336.207
 20
55.4411
 30
0.0
 11
336.207
 21
41.4419
 31
0.0
  0
LINE
  8
0
 62
     0
 10
336.207
 20
41.4419
 30
0.0
 11
322.206
 21
41.4419
 31
0.0
  0
LINE
  8
0
 62
     0
 10
322.206
 20
41.4419
 30
0.0
 11
322.206
 21
55.4411
 31
0.0
  0
LINE
  8
0
 62
     0
 10
303.156
 20
55.4411
 30
0.0
 11
317.157
 21
55.4411
 31
0.0
  0
LINE
  8
0
 62
     0
 10
317.157
 20
55.4411
 30
0.0
 11
317.157
 21
41.4419
 31
0.0
  0
LINE
  8
0
 62
     0
 10
317.157
 20
41.4419
 30
0.0
 11
303.156
 21
41.4419
 31
0.0
  0
LINE
  8
0
 62
     0
 10
303.156
 20
41.4419
 30
0.0
 11
303.156
 21
55.4411
 31
0.0
  0
LINE
  8
0
 62
     0
 10
226.956
 20
55.4411
 30
0.0
 11
240.957
 21
55.4411
 31
0.0
  0
LINE
  8
0
 62
     0
 10
240.957
 20
55.4411
 30
0.0
 11
240.957
 21
41.4419
 31
0.0
  0
LINE
  8
0
 62
     0
 10
240.957
 20
41.4419
 30
0.0
 11
226.956
 21
41.4419
 31
0.0
  0
LINE
  8
0
 62
     0
 10
226.956
 20
41.4419
 30
0.0
 11
226.956
 21
55.4411
 31
0.0
  0
LINE
  8
0
 62
     0
 10
207.906
 20
55.4411
 30
0.0
 11
221.907
 21
55.4411
 31
0.0
  0
LINE
  8
0
 62
     0
 10
221.907
 20
55.4411
 30
0.0
 11
221.907
 21
41.4419
 31
0.0
  0
LINE
  8
0
 62
     0
 10
221.907
 20
41.4419
 30
0.0
 11
207.906
 21
41.4419
 31
0.0
  0
LINE
  8
0
 62
     0
 10
207.906
 20
41.4419
 30
0.0
 11
207.906
 21
55.4411
 31
0.0
  0
LINE
  8
0
 62
     0
 10
188.856
 20
55.4411
 30
0.0
 11
202.857
 21
55.4411
 31
0.0
  0
LINE
  8
0
 62
     0
 10
202.857
 20
55.4411
 30
0.0
 11
202.857
 21
41.4419
 31
0.0
  0
LINE
  8
0
 62
     0
 10
202.857
 20
41.4419
 30
0.0
 11
188.856
 21
41.4419
 31
0.0
  0
LINE
  8
0
 62
     0
 10
188.856
 20
41.4419
 30
0.0
 11
188.856
 21
55.4411
 31
0.0
  0
LINE
  8
0
 62
     0
 10
169.806
 20
55.4411
 30
0.0
 11
183.807
 21
55.4411
 31
0.0
  0
LINE
  8
0
 62
     0
 10
183.807
 20
55.4411
 30
0.0
 11
183.807
 21
41.4419
 31
0.0
  0
LINE
  8
0
 62
     0
 10
183.807
 20
41.4419
 30
0.0
 11
169.806
 21
41.4419
 31
0.0
  0
LINE
  8
0
 62
     0
 10
169.806
 20
41.4419
 30
0.0
 11
169.806
 21
55.4411
 31
0.0
  0
LINE
  8
0
 62
     0
 10
150.756
 20
55.4411
 30
0.0
 11
164.757
 21
55.4411
 31
0.0
  0
LINE
  8
0
 62
     0
 10
164.757
 20
55.4411
 30
0.0
 11
164.757
 21
41.4419
 31
0.0
  0
LINE
  8
0
 62
     0
 10
164.757
 20
41.4419
 30
0.0
 11
150.756
 21
41.4419
 31
0.0
  0
LINE
  8
0
 62
     0
 10
150.756
 20
41.4419
 30
0.0
 11
150.756
 21
55.4411
 31
0.0
  0
LINE
  8
0
 62
     0
 10
131.706
 20
55.4411
 30
0.0
 11
145.707
 21
55.4411
 31
0.0
  0
LINE
  8
0
 62
     0
 10
145.707
 20
55.4411
 30
0.0
 11
145.707
 21
41.4419
 31
0.0
  0
LINE
  8
0
 62
     0
 10
145.707
 20
41.4419
 30
0.0
 11
131.706
 21
41.4419
 31
0.0
  0
LINE
  8
0
 62
     0
 10
131.706
 20
41.4419
 30
0.0
 11
131.706
 21
55.4411
 31
0.0
  0
LINE
  8
0
 62
     0
 10
112.656
 20
55.4411
 30
0.0
 11
126.657
 21
55.4411
 31
0.0
  0
LINE
  8
0
 62
     0
 10
126.657
 20
55.4411
 30
0.0
 11
126.657
 21
41.4419
 31
0.0
  0
LINE
  8
0
 62
     0
 10
126.657
 20
41.4419
 30
0.0
 11
112.656
 21
41.4419
 31
0.0
  0
LINE
  8
0
 62
     0
 10
112.656
 20
41.4419
 30
0.0
 11
112.656
 21
55.4411
 31
0.0
  0
LINE
  8
0
 62
     0
 10
93.6061
 20
55.4411
 30
0.0
 11
107.607
 21
55.4411
 31
0.0
  0
LINE
  8
0
 62
     0
 10
107.607
 20
55.4411
 30
0.0
 11
107.607
 21
41.4419
 31
0.0
  0
LINE
  8
0
 62
     0
 10
107.607
 20
41.4419
 30
0.0
 11
93.6061
 21
41.4419
 31
0.0
  0
LINE
  8
0
 62
     0
 10
93.6061
 20
41.4419
 30
0.0
 11
93.6061
 21
55.4411
 31
0.0
  0
LINE
  8
0
 62
     0
 10
74.5561
 20
55.4411
 30
0.0
 11
88.5567
 21
55.4411
 31
0.0
  0
LINE
  8
0
 62
     0
 10
88.5567
 20
55.4411
 30
0.0
 11
88.5567
 21
41.4419
 31
0.0
  0
LINE
  8
0
 62
     0
 10
88.5567
 20
41.4419
 30
0.0
 11
74.5561
 21
41.4419
 31
0.0
  0
LINE
  8
0
 62
     0
 10
74.5561
 20
41.4419
 30
0.0
 11
74.5561
 21
55.4411
 31
0.0
  0
LINE
  8
0
 62
     0
 10
55.5061
 20
55.4411
 30
0.0
 11
69.5067
 21
55.4411
 31
0.0
  0
LINE
  8
0
 62
     0
 10
69.5067
 20
55.4411
 30
0.0
 11
69.5067
 21
41.4419
 31
0.0
  0
LINE
  8
0
 62
     0
 10
69.5067
 20
41.4419
 30
0.0
 11
55.5061
 21
41.4419
 31
0.0
  0
LINE
  8
0
 62
     0
 10
55.5061
 20
41.4419
 30
0.0
 11
55.5061
 21
55.4411
 31
0.0
  0
LINE
  8
0
 62
     0
 10
36.4561
 20
55.4411
 30
0.0
 11
50.4567
 21
55.4411
 31
0.0
  0
LINE
  8
0
 62
     0
 10
50.4567
 20
55.4411
 30
0.0
 11
50.4567
 21
41.4419
 31
0.0
  0
LINE
  8
0
 62
     0
 10
50.4567
 20
41.4419
 30
0.0
 11
36.4561
 21
41.4419
 31
0.0
  0
LINE
  8
0
 62
     0
 10
36.4561
 20
41.4419
 30
0.0
 11
36.4561
 21
55.4411
 31
0.0
  0
LINE
  8
0
 62
     0
 10
10.2622
 20
55.4411
 30
0.0
 11
24.2631
 21
55.4411
 31
0.0
  0
LINE
  8
0
 62
     0
 10
24.2631
 20
55.4411
 30
0.0
 11
24.2631
 21
41.4419
 31
0.0
  0
LINE
  8
0
 62
     0
 10
24.2631
 20
41.4419
 30
0.0
 11
10.2622
 21
41.4419
 31
0.0
  0
LINE
  8
0
 62
     0
 10
10.2622
 20
41.4419
 30
0.0
 11
10.2622
 21
55.4411
 31
0.0
  0
LINE
  8
0
 62
     0
 10
341.256
 20
74.4911
 30
0.0
 11
355.258
 21
74.4911
 31
0.0
  0
LINE
  8
0
 62
     0
 10
355.258
 20
74.4911
 30
0.0
 11
355.258
 21
60.4919
 31
0.0
  0
LINE
  8
0
 62
     0
 10
355.258
 20
60.4919
 30
0.0
 11
341.256
 21
60.4919
 31
0.0
  0
LINE
  8
0
 62
     0
 10
341.256
 20
60.4919
 30
0.0
 11
341.256
 21
74.4911
 31
0.0
  0
LINE
  8
0
 62
     0
 10
322.206
 20
74.4911
 30
0.0
 11
336.207
 21
74.4911
 31
0.0
  0
LINE
  8
0
 62
     0
 10
336.207
 20
74.4911
 30
0.0
 11
336.207
 21
60.4919
 31
0.0
  0
LINE
  8
0
 62
     0
 10
336.207
 20
60.4919
 30
0.0
 11
322.206
 21
60.4919
 31
0.0
  0
LINE
  8
0
 62
     0
 10
322.206
 20
60.4919
 30
0.0
 11
322.206
 21
74.4911
 31
0.0
  0
LINE
  8
0
 62
     0
 10
303.156
 20
74.4911
 30
0.0
 11
317.157
 21
74.4911
 31
0.0
  0
LINE
  8
0
 62
     0
 10
317.157
 20
74.4911
 30
0.0
 11
317.157
 21
60.4919
 31
0.0
  0
LINE
  8
0
 62
     0
 10
317.157
 20
60.4919
 30
0.0
 11
303.156
 21
60.4919
 31
0.0
  0
LINE
  8
0
 62
     0
 10
303.156
 20
60.4919
 30
0.0
 11
303.156
 21
74.4911
 31
0.0
  0
LINE
  8
0
 62
     0
 10
265.056
 20
74.4911
 30
0.0
 11
279.057
 21
74.4911
 31
0.0
  0
LINE
  8
0
 62
     0
 10
279.057
 20
74.4911
 30
0.0
 11
279.057
 21
60.4919
 31
0.0
  0
LINE
  8
0
 62
     0
 10
279.057
 20
60.4919
 30
0.0
 11
265.056
 21
60.4919
 31
0.0
  0
LINE
  8
0
 62
     0
 10
265.056
 20
60.4919
 30
0.0
 11
265.056
 21
74.4911
 31
0.0
  0
LINE
  8
0
 62
     0
 10
241.245
 20
74.4911
 30
0.0
 11
255.243
 21
74.4911
 31
0.0
  0
LINE
  8
0
 62
     0
 10
255.243
 20
74.4911
 30
0.0
 11
255.243
 21
60.4919
 31
0.0
  0
LINE
  8
0
 62
     0
 10
255.243
 20
60.4919
 30
0.0
 11
241.245
 21
60.4919
 31
0.0
  0
LINE
  8
0
 62
     0
 10
241.245
 20
60.4919
 30
0.0
 11
241.245
 21
74.4911
 31
0.0
  0
LINE
  8
0
 62
     0
 10
222.195
 20
74.4911
 30
0.0
 11
236.194
 21
74.4911
 31
0.0
  0
LINE
  8
0
 62
     0
 10
236.194
 20
74.4911
 30
0.0
 11
236.194
 21
60.4919
 31
0.0
  0
LINE
  8
0
 62
     0
 10
236.194
 20
60.4919
 30
0.0
 11
222.195
 21
60.4919
 31
0.0
  0
LINE
  8
0
 62
     0
 10
222.195
 20
60.4919
 30
0.0
 11
222.195
 21
74.4911
 31
0.0
  0
LINE
  8
0
 62
     0
 10
203.145
 20
74.4911
 30
0.0
 11
217.144
 21
74.4911
 31
0.0
  0
LINE
  8
0
 62
     0
 10
217.144
 20
74.4911
 30
0.0
 11
217.144
 21
60.4919
 31
0.0
  0
LINE
  8
0
 62
     0
 10
217.144
 20
60.4919
 30
0.0
 11
203.145
 21
60.4919
 31
0.0
  0
LINE
  8
0
 62
     0
 10
203.145
 20
60.4919
 30
0.0
 11
203.145
 21
74.4911
 31
0.0
  0
LINE
  8
0
 62
     0
 10
184.095
 20
74.4911
 30
0.0
 11
198.094
 21
74.4911
 31
0.0
  0
LINE
  8
0
 62
     0
 10
198.094
 20
74.4911
 30
0.0
 11
198.094
 21
60.4919
 31
0.0
  0
LINE
  8
0
 62
     0
 10
198.094
 20
60.4919
 30
0.0
 11
184.095
 21
60.4919
 31
0.0
  0
LINE
  8
0
 62
     0
 10
184.095
 20
60.4919
 30
0.0
 11
184.095
 21
74.4911
 31
0.0
  0
LINE
  8
0
 62
     0
 10
165.045
 20
74.4911
 30
0.0
 11
179.044
 21
74.4911
 31
0.0
  0
LINE
  8
0
 62
     0
 10
179.044
 20
74.4911
 30
0.0
 11
179.044
 21
60.4919
 31
0.0
  0
LINE
  8
0
 62
     0
 10
179.044
 20
60.4919
 30
0.0
 11
165.045
 21
60.4919
 31
0.0
  0
LINE
  8
0
 62
     0
 10
165.045
 20
60.4919
 30
0.0
 11
165.045
 21
74.4911
 31
0.0
  0
LINE
  8
0
 62
     0
 10
145.995
 20
74.4911
 30
0.0
 11
159.994
 21
74.4911
 31
0.0
  0
LINE
  8
0
 62
     0
 10
159.994
 20
74.4911
 30
0.0
 11
159.994
 21
60.4919
 31
0.0
  0
LINE
  8
0
 62
     0
 10
159.994
 20
60.4919
 30
0.0
 11
145.995
 21
60.4919
 31
0.0
  0
LINE
  8
0
 62
     0
 10
145.995
 20
60.4919
 30
0.0
 11
145.995
 21
74.4911
 31
0.0
  0
LINE
  8
0
 62
     0
 10
126.945
 20
74.4911
 30
0.0
 11
140.944
 21
74.4911
 31
0.0
  0
LINE
  8
0
 62
     0
 10
140.944
 20
74.4911
 30
0.0
 11
140.944
 21
60.4919
 31
0.0
  0
LINE
  8
0
 62
     0
 10
140.944
 20
60.4919
 30
0.0
 11
126.945
 21
60.4919
 31
0.0
  0
LINE
  8
0
 62
     0
 10
126.945
 20
60.4919
 30
0.0
 11
126.945
 21
74.4911
 31
0.0
  0
LINE
  8
0
 62
     0
 10
107.895
 20
74.4911
 30
0.0
 11
121.894
 21
74.4911
 31
0.0
  0
LINE
  8
0
 62
     0
 10
121.894
 20
74.4911
 30
0.0
 11
121.894
 21
60.4919
 31
0.0
  0
LINE
  8
0
 62
     0
 10
121.894
 20
60.4919
 30
0.0
 11
107.895
 21
60.4919
 31
0.0
  0
LINE
  8
0
 62
     0
 10
107.895
 20
60.4919
 30
0.0
 11
107.895
 21
74.4911
 31
0.0
  0
LINE
  8
0
 62
     0
 10
88.845
 20
74.4911
 30
0.0
 11
102.844
 21
74.4911
 31
0.0
  0
LINE
  8
0
 62
     0
 10
102.844
 20
74.4911
 30
0.0
 11
102.844
 21
60.4919
 31
0.0
  0
LINE
  8
0
 62
     0
 10
102.844
 20
60.4919
 30
0.0
 11
88.845
 21
60.4919
 31
0.0
  0
LINE
  8
0
 62
     0
 10
88.845
 20
60.4919
 30
0.0
 11
88.845
 21
74.4911
 31
0.0
  0
LINE
  8
0
 62
     0
 10
69.795
 20
74.4911
 30
0.0
 11
83.7942
 21
74.4911
 31
0.0
  0
LINE
  8
0
 62
     0
 10
83.7942
 20
74.4911
 30
0.0
 11
83.7942
 21
60.4919
 31
0.0
  0
LINE
  8
0
 62
     0
 10
83.7942
 20
60.4919
 30
0.0
 11
69.795
 21
60.4919
 31
0.0
  0
LINE
  8
0
 62
     0
 10
69.795
 20
60.4919
 30
0.0
 11
69.795
 21
74.4911
 31
0.0
  0
LINE
  8
0
 62
     0
 10
50.745
 20
74.4911
 30
0.0
 11
64.7442
 21
74.4911
 31
0.0
  0
LINE
  8
0
 62
     0
 10
64.7442
 20
74.4911
 30
0.0
 11
64.7442
 21
60.4919
 31
0.0
  0
LINE
  8
0
 62
     0
 10
64.7442
 20
60.4919
 30
0.0
 11
50.745
 21
60.4919
 31
0.0
  0
LINE
  8
0
 62
     0
 10
50.745
 20
60.4919
 30
0.0
 11
50.745
 21
74.4911
 31
0.0
  0
LINE
  8
0
 62
     0
 10
31.6949
 20
74.4911
 30
0.0
 11
45.6942
 21
74.4911
 31
0.0
  0
LINE
  8
0
 62
     0
 10
45.6942
 20
74.4911
 30
0.0
 11
45.6942
 21
60.4919
 31
0.0
  0
LINE
  8
0
 62
     0
 10
45.6942
 20
60.4919
 30
0.0
 11
31.6949
 21
60.4919
 31
0.0
  0
LINE
  8
0
 62
     0
 10
31.6949
 20
60.4919
 30
0.0
 11
31.6949
 21
74.4911
 31
0.0
  0
LINE
  8
0
 62
     0
 10
7.88098
 20
74.4911
 30
0.0
 11
21.8819
 21
74.4911
 31
0.0
  0
LINE
  8
0
 62
     0
 10
21.8819
 20
74.4911
 30
0.0
 11
21.8819
 21
60.4919
 31
0.0
  0
LINE
  8
0
 62
     0
 10
21.8819
 20
60.4919
 30
0.0
 11
7.88098
 21
60.4919
 31
0.0
  0
LINE
  8
0
 62
     0
 10
7.88098
 20
60.4919
 30
0.0
 11
7.88098
 21
74.4911
 31
0.0
  0
LINE
  8
0
 62
     0
 10
260.295
 20
93.5411
 30
0.0
 11
260.295
 21
88.8421
 31
0.0
  0
LINE
  8
0
 62
     0
 10
260.295
 20
88.8421
 30
0.0
 11
258.77
 21
88.8421
 31
0.0
  0
LINE
  8
0
 62
     0
 10
258.77
 20
88.8421
 30
0.0
 11
258.77
 21
92.0722
 31
0.0
  0
LINE
  8
0
 62
     0
 10
258.77
 20
92.0722
 30
0.0
 11
257.044
 21
92.0722
 31
0.0
  0
LINE
  8
0
 62
     0
 10
257.044
 20
92.0722
 30
0.0
 11
257.044
 21
92.9915
 31
0.0
  0
LINE
  8
0
 62
     0
 10
257.044
 20
92.9915
 30
0.0
 11
253.744
 21
92.9915
 31
0.0
  0
LINE
  8
0
 62
     0
 10
253.744
 20
92.9915
 30
0.0
 11
253.744
 21
92.0722
 31
0.0
  0
LINE
  8
0
 62
     0
 10
253.744
 20
92.0722
 30
0.0
 11
252.02
 21
92.0722
 31
0.0
  0
LINE
  8
0
 62
     0
 10
252.02
 20
92.0722
 30
0.0
 11
252.02
 21
88.8421
 31
0.0
  0
LINE
  8
0
 62
     0
 10
252.02
 20
88.8421
 30
0.0
 11
251.194
 21
88.8421
 31
0.0
  0
LINE
  8
0
 62
     0
 10
251.194
 20
88.8421
 30
0.0
 11
251.194
 21
86.0418
 31
0.0
  0
LINE
  8
0
 62
     0
 10
251.194
 20
86.0418
 30
0.0
 11
252.02
 21
86.0418
 31
0.0
  0
LINE
  8
0
 62
     0
 10
252.02
 20
86.0418
 30
0.0
 11
252.02
 21
79.7719
 31
0.0
  0
LINE
  8
0
 62
     0
 10
252.02
 20
79.7719
 30
0.0
 11
253.744
 21
79.7719
 31
0.0
  0
LINE
  8
0
 62
     0
 10
253.744
 20
79.7719
 30
0.0
 11
253.744
 21
78.7922
 31
0.0
  0
LINE
  8
0
 62
     0
 10
253.744
 20
78.7922
 30
0.0
 11
257.044
 21
78.7922
 31
0.0
  0
LINE
  8
0
 62
     0
 10
257.044
 20
78.7922
 30
0.0
 11
257.044
 21
79.7719
 31
0.0
  0
LINE
  8
0
 62
     0
 10
257.044
 20
79.7719
 30
0.0
 11
258.77
 21
79.7719
 31
0.0
  0
LINE
  8
0
 62
     0
 10
258.77
 20
79.7719
 30
0.0
 11
258.77
 21
84.2423
 31
0.0
  0
LINE
  8
0
 62
     0
 10
258.77
 20
84.2423
 30
0.0
 11
260.295
 21
84.2423
 31
0.0
  0
LINE
  8
0
 62
     0
 10
260.295
 20
84.2423
 30
0.0
 11
260.295
 21
79.5419
 31
0.0
  0
LINE
  8
0
 62
     0
 10
260.295
 20
79.5419
 30
0.0
 11
274.294
 21
79.5419
 31
0.0
  0
LINE
  8
0
 62
     0
 10
274.294
 20
79.5419
 30
0.0
 11
274.294
 21
84.2423
 31
0.0
  0
LINE
  8
0
 62
     0
 10
274.294
 20
84.2423
 30
0.0
 11
275.82
 21
84.2423
 31
0.0
  0
LINE
  8
0
 62
     0
 10
275.82
 20
84.2423
 30
0.0
 11
275.82
 21
79.7719
 31
0.0
  0
LINE
  8
0
 62
     0
 10
275.82
 20
79.7719
 30
0.0
 11
277.545
 21
79.7719
 31
0.0
  0
LINE
  8
0
 62
     0
 10
277.545
 20
79.7719
 30
0.0
 11
277.545
 21
78.7922
 31
0.0
  0
LINE
  8
0
 62
     0
 10
277.545
 20
78.7922
 30
0.0
 11
280.844
 21
78.7922
 31
0.0
  0
LINE
  8
0
 62
     0
 10
280.844
 20
78.7922
 30
0.0
 11
280.844
 21
79.7719
 31
0.0
  0
LINE
  8
0
 62
     0
 10
280.844
 20
79.7719
 30
0.0
 11
282.569
 21
79.7719
 31
0.0
  0
LINE
  8
0
 62
     0
 10
282.569
 20
79.7719
 30
0.0
 11
282.569
 21
86.0418
 31
0.0
  0
LINE
  8
0
 62
     0
 10
282.569
 20
86.0418
 30
0.0
 11
283.395
 21
86.0418
 31
0.0
  0
LINE
  8
0
 62
     0
 10
283.395
 20
86.0418
 30
0.0
 11
283.395
 21
88.8421
 31
0.0
  0
LINE
  8
0
 62
     0
 10
283.395
 20
88.8421
 30
0.0
 11
282.569
 21
88.8421
 31
0.0
  0
LINE
  8
0
 62
     0
 10
282.569
 20
88.8421
 30
0.0
 11
282.569
 21
92.0722
 31
0.0
  0
LINE
  8
0
 62
     0
 10
282.569
 20
92.0722
 30
0.0
 11
280.844
 21
92.0722
 31
0.0
  0
LINE
  8
0
 62
     0
 10
280.844
 20
92.0722
 30
0.0
 11
280.844
 21
92.9915
 31
0.0
  0
LINE
  8
0
 62
     0
 10
280.844
 20
92.9915
 30
0.0
 11
277.545
 21
92.9915
 31
0.0
  0
LINE
  8
0
 62
     0
 10
277.545
 20
92.9915
 30
0.0
 11
277.545
 21
92.0722
 31
0.0
  0
LINE
  8
0
 62
     0
 10
277.545
 20
92.0722
 30
0.0
 11
275.82
 21
92.0722
 31
0.0
  0
LINE
  8
0
 62
     0
 10
275.82
 20
92.0722
 30
0.0
 11
275.82
 21
88.8421
 31
0.0
  0
LINE
  8
0
 62
     0
 10
275.82
 20
88.8421
 30
0.0
 11
274.294
 21
88.8421
 31
0.0
  0
LINE
  8
0
 62
     0
 10
274.294
 20
88.8421
 30
0.0
 11
274.294
 21
93.5411
 31
0.0
  0
LINE
  8
0
 62
     0
 10
274.294
 20
93.5411
 30
0.0
 11
260.295
 21
93.5411
 31
0.0
  0
LINE
  8
0
 62
     0
 10
341.256
 20
93.5411
 30
0.0
 11
355.258
 21
93.5411
 31
0.0
  0
LINE
  8
0
 62
     0
 10
355.258
 20
93.5411
 30
0.0
 11
355.258
 21
79.5419
 31
0.0
  0
LINE
  8
0
 62
     0
 10
355.258
 20
79.5419
 30
0.0
 11
341.256
 21
79.5419
 31
0.0
  0
LINE
  8
0
 62
     0
 10
341.256
 20
79.5419
 30
0.0
 11
341.256
 21
93.5411
 31
0.0
  0
LINE
  8
0
 62
     0
 10
322.206
 20
93.5411
 30
0.0
 11
336.207
 21
93.5411
 31
0.0
  0
LINE
  8
0
 62
     0
 10
336.207
 20
93.5411
 30
0.0
 11
336.207
 21
79.5419
 31
0.0
  0
LINE
  8
0
 62
     0
 10
336.207
 20
79.5419
 30
0.0
 11
322.206
 21
79.5419
 31
0.0
  0
LINE
  8
0
 62
     0
 10
322.206
 20
79.5419
 30
0.0
 11
322.206
 21
93.5411
 31
0.0
  0
LINE
  8
0
 62
     0
 10
303.156
 20
93.5411
 30
0.0
 11
317.157
 21
93.5411
 31
0.0
  0
LINE
  8
0
 62
     0
 10
317.157
 20
93.5411
 30
0.0
 11
317.157
 21
79.5419
 31
0.0
  0
LINE
  8
0
 62
     0
 10
317.157
 20
79.5419
 30
0.0
 11
303.156
 21
79.5419
 31
0.0
  0
LINE
  8
0
 62
     0
 10
303.156
 20
79.5419
 30
0.0
 11
303.156
 21
93.5411
 31
0.0
  0
LINE
  8
0
 62
     0
 10
231.72
 20
93.5411
 30
0.0
 11
245.719
 21
93.5411
 31
0.0
  0
LINE
  8
0
 62
     0
 10
245.719
 20
93.5411
 30
0.0
 11
245.719
 21
79.5419
 31
0.0
  0
LINE
  8
0
 62
     0
 10
245.719
 20
79.5419
 30
0.0
 11
231.72
 21
79.5419
 31
0.0
  0
LINE
  8
0
 62
     0
 10
231.72
 20
79.5419
 30
0.0
 11
231.72
 21
93.5411
 31
0.0
  0
LINE
  8
0
 62
     0
 10
212.67
 20
93.5411
 30
0.0
 11
226.669
 21
93.5411
 31
0.0
  0
LINE
  8
0
 62
     0
 10
226.669
 20
93.5411
 30
0.0
 11
226.669
 21
79.5419
 31
0.0
  0
LINE
  8
0
 62
     0
 10
226.669
 20
79.5419
 30
0.0
 11
212.67
 21
79.5419
 31
0.0
  0
LINE
  8
0
 62
     0
 10
212.67
 20
79.5419
 30
0.0
 11
212.67
 21
93.5411
 31
0.0
  0
LINE
  8
0
 62
     0
 10
193.62
 20
93.5411
 30
0.0
 11
207.619
 21
93.5411
 31
0.0
  0
LINE
  8
0
 62
     0
 10
207.619
 20
93.5411
 30
0.0
 11
207.619
 21
79.5419
 31
0.0
  0
LINE
  8
0
 62
     0
 10
207.619
 20
79.5419
 30
0.0
 11
193.62
 21
79.5419
 31
0.0
  0
LINE
  8
0
 62
     0
 10
193.62
 20
79.5419
 30
0.0
 11
193.62
 21
93.5411
 31
0.0
  0
LINE
  8
0
 62
     0
 10
174.57
 20
93.5411
 30
0.0
 11
188.569
 21
93.5411
 31
0.0
  0
LINE
  8
0
 62
     0
 10
188.569
 20
93.5411
 30
0.0
 11
188.569
 21
79.5419
 31
0.0
  0
LINE
  8
0
 62
     0
 10
188.569
 20
79.5419
 30
0.0
 11
174.57
 21
79.5419
 31
0.0
  0
LINE
  8
0
 62
     0
 10
174.57
 20
79.5419
 30
0.0
 11
174.57
 21
93.5411
 31
0.0
  0
LINE
  8
0
 62
     0
 10
155.52
 20
93.5411
 30
0.0
 11
169.519
 21
93.5411
 31
0.0
  0
LINE
  8
0
 62
     0
 10
169.519
 20
93.5411
 30
0.0
 11
169.519
 21
79.5419
 31
0.0
  0
LINE
  8
0
 62
     0
 10
169.519
 20
79.5419
 30
0.0
 11
155.52
 21
79.5419
 31
0.0
  0
LINE
  8
0
 62
     0
 10
155.52
 20
79.5419
 30
0.0
 11
155.52
 21
93.5411
 31
0.0
  0
LINE
  8
0
 62
     0
 10
136.47
 20
93.5411
 30
0.0
 11
150.469
 21
93.5411
 31
0.0
  0
LINE
  8
0
 62
     0
 10
150.469
 20
93.5411
 30
0.0
 11
150.469
 21
79.5419
 31
0.0
  0
LINE
  8
0
 62
     0
 10
150.469
 20
79.5419
 30
0.0
 11
136.47
 21
79.5419
 31
0.0
  0
LINE
  8
0
 62
     0
 10
136.47
 20
79.5419
 30
0.0
 11
136.47
 21
93.5411
 31
0.0
  0
LINE
  8
0
 62
     0
 10
117.419
 20
93.5411
 30
0.0
 11
131.419
 21
93.5411
 31
0.0
  0
LINE
  8
0
 62
     0
 10
131.419
 20
93.5411
 30
0.0
 11
131.419
 21
79.5419
 31
0.0
  0
LINE
  8
0
 62
     0
 10
131.419
 20
79.5419
 30
0.0
 11
117.419
 21
79.5419
 31
0.0
  0
LINE
  8
0
 62
     0
 10
117.419
 20
79.5419
 30
0.0
 11
117.419
 21
93.5411
 31
0.0
  0
LINE
  8
0
 62
     0
 10
98.3686
 20
93.5411
 30
0.0
 11
112.368
 21
93.5411
 31
0.0
  0
LINE
  8
0
 62
     0
 10
112.368
 20
93.5411
 30
0.0
 11
112.368
 21
79.5419
 31
0.0
  0
LINE
  8
0
 62
     0
 10
112.368
 20
79.5419
 30
0.0
 11
98.3686
 21
79.5419
 31
0.0
  0
LINE
  8
0
 62
     0
 10
98.3686
 20
79.5419
 30
0.0
 11
98.3686
 21
93.5411
 31
0.0
  0
LINE
  8
0
 62
     0
 10
79.32
 20
93.5411
 30
0.0
 11
93.3193
 21
93.5411
 31
0.0
  0
LINE
  8
0
 62
     0
 10
93.3193
 20
93.5411
 30
0.0
 11
93.3193
 21
79.5419
 31
0.0
  0
LINE
  8
0
 62
     0
 10
93.3193
 20
79.5419
 30
0.0
 11
79.32
 21
79.5419
 31
0.0
  0
LINE
  8
0
 62
     0
 10
79.32
 20
79.5419
 30
0.0
 11
79.32
 21
93.5411
 31
0.0
  0
LINE
  8
0
 62
     0
 10
60.27
 20
93.5411
 30
0.0
 11
74.2692
 21
93.5411
 31
0.0
  0
LINE
  8
0
 62
     0
 10
74.2692
 20
93.5411
 30
0.0
 11
74.2692
 21
79.5419
 31
0.0
  0
LINE
  8
0
 62
     0
 10
74.2692
 20
79.5419
 30
0.0
 11
60.27
 21
79.5419
 31
0.0
  0
LINE
  8
0
 62
     0
 10
60.27
 20
79.5419
 30
0.0
 11
60.27
 21
93.5411
 31
0.0
  0
LINE
  8
0
 62
     0
 10
41.22
 20
93.5411
 30
0.0
 11
55.2192
 21
93.5411
 31
0.0
  0
LINE
  8
0
 62
     0
 10
55.2192
 20
93.5411
 30
0.0
 11
55.2192
 21
79.5419
 31
0.0
  0
LINE
  8
0
 62
     0
 10
55.2192
 20
79.5419
 30
0.0
 11
41.22
 21
79.5419
 31
0.0
  0
LINE
  8
0
 62
     0
 10
41.22
 20
79.5419
 30
0.0
 11
41.22
 21
93.5411
 31
0.0
  0
LINE
  8
0
 62
     0
 10
22.1699
 20
93.5411
 30
0.0
 11
36.1692
 21
93.5411
 31
0.0
  0
LINE
  8
0
 62
     0
 10
36.1692
 20
93.5411
 30
0.0
 11
36.1692
 21
79.5419
 31
0.0
  0
LINE
  8
0
 62
     0
 10
36.1692
 20
79.5419
 30
0.0
 11
22.1699
 21
79.5419
 31
0.0
  0
LINE
  8
0
 62
     0
 10
22.1699
 20
79.5419
 30
0.0
 11
22.1699
 21
93.5411
 31
0.0
  0
LINE
  8
0
 62
     0
 10
3.11988
 20
93.5411
 30
0.0
 11
17.1194
 21
93.5411
 31
0.0
  0
LINE
  8
0
 62
     0
 10
17.1194
 20
93.5411
 30
0.0
 11
17.1194
 21
79.5419
 31
0.0
  0
LINE
  8
0
 62
     0
 10
17.1194
 20
79.5419
 30
0.0
 11
3.11988
 21
79.5419
 31
0.0
  0
LINE
  8
0
 62
     0
 10
3.11988
 20
79.5419
 30
0.0
 11
3.11988
 21
93.5411
 31
0.0
  0
ENDSEC
  0
EOF
